<?xml version="1.0" standalone="no"?>
<!DOCTYPE svg PUBLIC "-//W3C//DTD SVG 20010904//EN"
 "http://www.w3.org/TR/2001/REC-SVG-20010904/DTD/svg10.dtd">
<svg version="1.0" xmlns="http://www.w3.org/2000/svg"
 width="260.000000pt" height="260.000000pt" viewBox="0 0 260.000000 260.000000"
 preserveAspectRatio="xMidYMid meet">
<metadata>
Created by potrace 1.11, written by Peter Selinger 2001-2013
</metadata>
<g transform="translate(0.000000,260.000000) scale(0.100000,-0.100000)"
fill="#000000" stroke="none">
<path d="M970 2543 c-14 -3 -63 -16 -110 -30 -47 -13 -98 -28 -115 -32 -46
-12 -136 -60 -183 -98 -138 -112 -207 -320 -153 -464 29 -74 45 -109 53 -109
5 0 8 -7 8 -15 0 -8 5 -15 11 -15 5 0 7 -4 4 -10 -3 -5 -15 -10 -26 -10 -33 0
-118 -49 -161 -93 -64 -66 -96 -143 -96 -233 0 -82 17 -139 74 -240 l34 -61
-22 -15 c-80 -53 -134 -152 -137 -250 -2 -72 40 -219 83 -293 50 -85 152 -145
247 -145 l56 0 38 -77 c68 -139 178 -225 320 -253 33 -6 80 -16 105 -21 156
-31 433 -32 540 -4 8 3 33 7 55 10 78 12 159 36 207 62 68 37 144 123 187 213
l37 75 49 -5 c115 -12 234 48 290 145 36 63 77 193 82 267 4 50 1 79 -13 119
-22 62 -91 142 -145 170 l-39 19 46 92 c25 50 48 98 50 107 2 9 10 39 18 68
47 170 39 328 -22 433 -30 53 -110 140 -127 140 -7 0 -18 6 -24 14 -13 16 -89
45 -136 52 -164 26 -239 68 -395 221 -163 159 -210 191 -355 240 -67 22 -99
27 -195 28 -63 1 -126 0 -140 -2z"/>
</g>
</svg>
