<?xml version="1.0" encoding="utf-8"?>
<!-- Generator: Adobe Illustrator 21.1.0, SVG Export Plug-In . SVG Version: 6.00 Build 0)  -->
<svg version="1.1" xmlns="http://www.w3.org/2000/svg" xmlns:xlink="http://www.w3.org/1999/xlink" x="0px" y="0px"
	 viewBox="0 0 255.7 277.6" style="enable-background:new 0 0 255.7 277.6;" xml:space="preserve">
<style type="text/css">
	.st0{fill:#4A0D66;}
	.st1{fill:#FFFFFF;}
	.st2{fill:#624877;}
	.st3{display:none;}
	.st4{display:inline;}
	.st5{fill:url(#);}
	.st6{fill:none;stroke:#614776;stroke-width:19.552;stroke-linecap:round;stroke-linejoin:round;stroke-miterlimit:10;}
	.st7{fill:none;stroke:#614776;stroke-width:12.4808;stroke-linecap:round;stroke-linejoin:round;stroke-miterlimit:10;}
	.st8{fill:none;stroke:#614776;stroke-width:14.1519;stroke-linecap:round;stroke-linejoin:round;stroke-miterlimit:10;}
	.st9{fill:#614776;}
	.st10{fill:#FFFFFF;stroke:#614776;stroke-width:15.3732;stroke-linecap:round;stroke-linejoin:round;stroke-miterlimit:10;}
	.st11{fill:#FFFFFF;stroke:#614776;stroke-width:11.0732;stroke-miterlimit:10;}
	.st12{fill:none;stroke:#614776;stroke-width:11.0732;stroke-miterlimit:10;}
	.st13{fill:none;stroke:#614776;stroke-width:19.9783;stroke-linecap:round;stroke-linejoin:round;stroke-miterlimit:10;}
	.st14{fill:#FFFFFF;stroke:#614776;stroke-width:19.9783;stroke-linecap:round;stroke-linejoin:round;stroke-miterlimit:10;}
	.st15{fill:#FFFFFF;stroke:#614776;stroke-width:11.4238;stroke-linecap:round;stroke-linejoin:round;stroke-miterlimit:10;}
	.st16{fill:none;stroke:#614776;stroke-width:8.0922;stroke-linecap:round;stroke-linejoin:round;stroke-miterlimit:10;}
	.st17{fill:none;stroke:#614776;stroke-width:8.7906;stroke-linecap:round;stroke-linejoin:round;stroke-miterlimit:10;}
	.st18{display:inline;fill:#614776;}
	.st19{fill:none;stroke:#2C1415;stroke-width:19.552;stroke-linecap:round;stroke-linejoin:round;stroke-miterlimit:10;}
	.st20{fill:#FFFFFF;stroke:#2C1415;stroke-width:14.1519;stroke-linecap:round;stroke-linejoin:round;stroke-miterlimit:10;}
	.st21{fill:#2C1415;}
	.st22{fill:none;stroke:#2C1415;stroke-width:14.1519;stroke-linecap:round;stroke-linejoin:round;stroke-miterlimit:10;}
	.st23{fill:#2C1415;stroke:#2C1415;stroke-width:5.3409;stroke-miterlimit:10;}
</style>
<g id="Outlined">
	<g>
		<g>
			<path class="st0" d="M239.5,168.8c-3.6-7-9.6-12.1-16.9-14.8c2.5-5.1,5.2-10.4,8-16.1c2.5-5,4.8-15.3,4.8-15.3l1.7-12.4
				c3.1-23-12.9-44.2-35.6-47.2c-12.4-1.6-23.8-7.4-32.6-16.4l-10.5-10.8c-18.8-19.4-46.6-26.6-72.2-18.9L72,21.1
				c-31.9,9.6-46.5,46.2-24.6,71c-16.4,1.2-41,23.2-23.9,53.4c2,3.5,3.8,6.9,5.7,10.2c-5.5,2.9-10,7.4-12.9,13.1
				c-3.8,7.4-4.5,15.8-1.9,23.7l3.8,12c2.5,7.9,8,14.3,15.4,18.1c4.5,2.3,9.3,3.4,14.1,3.4c1.5,0,3-0.1,4.4-0.3
				c7.2,19.4,18.6,30,35.7,33.2c12,2.2,28.4,4.9,38.3,4.9c9.9,0,26.3-2.7,38.3-4.9c17.3-3.2,28.8-14.2,35.9-34
				c2.6,0.7,5.3,1.1,7.9,1.1c4.9,0,9.7-1.2,14.1-3.4c7.4-3.8,12.8-10.2,15.4-18.1l3.8-12C244,184.6,243.3,176.2,239.5,168.8z
				 M228.7,201.6c-1.8,5.5-5.6,10-10.7,12.6c-4.7,2.4-9.9,2.9-14.9,1.7c3.9-14.2,8.2-32.9,10.6-43.7c1.5-3.1,3.2-6.4,4.9-9.8
				c0,0,0.1,0,0.1,0c5.5,1.8,10,5.6,12.6,10.7c2.6,5.1,3.1,11,1.4,16.5L228.7,201.6z M191.6,221.1c-6,17.2-14.8,25.9-29.1,28.6
				c-16.4,3.1-29.4,4.7-36.6,4.7s-20.2-1.7-36.6-4.7c-13.7-2.6-22.5-10.7-28.5-26.8c-0.5-1.4-1-2.9-1.4-4.4
				c-0.3-0.9-0.6-1.7-0.8-2.6c-0.2-0.6-0.4-1.3-0.5-2c-1.4-5.1-2.9-10.9-4.3-16.7c0-0.1,0.1-0.2,0.1-0.4l-0.4-6.4
				c3.2,2.5,7,4.1,11.1,4.1h4.5h4.8h4.7h17.1c9.9,0,18.1-8.4,19.6-19.9l2.3-17.2h16.5l1.4,15.8c1,12.1,9.4,21.3,19.7,21.3H177h4.7
				h4.7c0,0,0.1,0,0.1,0c4.7,0,9.1-2,12.5-5.3l-0.5,6.5c-1.3,5.5-2.7,11.1-4.1,16.1c-0.4,1.4-0.8,2.8-1.2,4.1
				c-0.1,0.3-0.2,0.5-0.2,0.7C192.6,218.2,192.1,219.7,191.6,221.1z M37.7,214.2c-5.1-2.6-8.9-7.1-10.7-12.6l-3.8-12
				c-1.8-5.5-1.3-11.4,1.4-16.5c2-4,5.2-7.1,9.1-9.2c1.7,3.2,3.4,6.2,4.9,9.2c2.4,11,6.7,29.5,10.5,43.4
				C45.2,216.8,41.3,216,37.7,214.2z M186.4,187.2h-3.5h-4.9h-22.8c-6.4,0-11.9-6.4-12.5-14.6l-1.8-20.7c-0.2-2-1.9-3.5-3.9-3.3
				c-0.1,0-0.2,0.1-0.3,0.1c-0.2,0-0.3-0.1-0.5-0.1h-20.3c-0.2,0-0.3,0.1-0.5,0.1c-0.1,0-0.1-0.1-0.2-0.1c-2-0.3-3.8,1.1-4.1,3.1
				l-3,21.9c-1,7.8-6.3,13.6-12.4,13.6H77.6h-4.9h-4.9h-3.2c-5.4,0-10.2-4.7-11.9-11.2L52,164.2c0-0.4,0-0.8,0-1.2
				c-0.1-1.6-0.1-3.3,0-5c0.1-1.6,0.2-3.2,0.4-4.8c1-8,3.5-15.6,6.9-19.8l2.4-2.7c7-8.1,9.2-19.2,6-29.4l0,0l0.6,0.1
				c5.1,0.8,9.8-2.9,10.2-8c0.6-13.6,16.1-22.2,38.9-9.7c21.5,11.8,42.6,20.8,59.9,22.6c9.4,0,14,12.5,16.6,16.8
				c2.3,3.8,7.5,18.5,7.7,30l-0.1,0.9l-0.7,5.4l-0.7,5.9l-1.1,8.4c-0.9,7.1-5.5,12.6-10.9,13.4C187.4,187.1,186.9,187.2,186.4,187.2
				z"/>
			<path class="st0" d="M139.6,216.6c-0.1,0-6.2,4.8-13.7,4.8c-7.4,0-13.6-4.8-13.7-4.8c-1.4-1.1-3.5-0.9-4.7,0.6
				c-1.1,1.4-0.9,3.5,0.6,4.7c0.3,0.3,8,6.2,17.8,6.2s17.4-6,17.8-6.2c1.4-1.1,1.7-3.2,0.6-4.7C143.1,215.7,141,215.5,139.6,216.6z"
				/>
			<path class="st0" d="M107.6,129.7c-1.4-0.7-2.7-1.3-4.1-1.9c-1.4-0.6-2.7-1.2-4.1-1.7c-1.4-0.5-2.8-1-4.2-1.5
				c-0.7-0.2-1.4-0.4-2.2-0.7c-0.7-0.2-1.4-0.4-2.3-0.6c-3.5-0.7-7.2-0.2-10.5,1.3c-0.8,0.4-1.6,0.8-2.3,1.3l-0.5,0.4l-0.4,0.3
				l-0.9,0.7l-3.4,2.6c-0.9,0.7-1.4,1.8-1.2,3c0.3,1.7,1.9,2.8,3.6,2.6l1.6-0.3c0.4-0.1,0.8-0.2,1.2-0.3c0.4-0.1,0.7-0.2,1.1-0.3
				c0.7-0.2,1.4-0.5,2.1-0.7c0.4-0.1,0.7-0.3,1-0.4l0.3-0.1c0.1,0,0.2-0.1,0.2-0.1l0.3-0.1c0.5-0.1,0.9-0.2,1.3-0.2
				c1.7-0.2,3.1-0.1,4.5,0.2l3.4,0.8c1.3,0.3,2.6,0.6,3.9,0.8c1.3,0.2,2.7,0.5,4.1,0.6c0.7,0.1,1.4,0.1,2.2,0.2l1.1,0
				c0.4,0,0.8,0,1.1,0l2.1-0.3c0.9-0.1,1.8-0.7,2.3-1.6C109.6,132.2,109,130.4,107.6,129.7z"/>
			<path class="st0" d="M155.9,134.9c1.3-0.2,2.6-0.5,3.9-0.8l3.4-0.8c1.4-0.3,2.8-0.4,4.5-0.2c0.4,0,0.8,0.1,1.3,0.2l0.3,0.1
				c0,0,0.1,0.1,0.2,0.1l0.3,0.1c0.3,0.1,0.7,0.3,1,0.4c0.7,0.3,1.4,0.5,2.1,0.7c0.4,0.1,0.7,0.2,1.1,0.3c0.4,0.1,0.8,0.2,1.2,0.3
				l1.6,0.3c1.7,0.3,3.3-0.9,3.6-2.6c0.2-1.2-0.3-2.3-1.2-3l-3.4-2.6l-0.9-0.7l-0.4-0.3L174,126c-0.7-0.5-1.5-1-2.3-1.3
				c-3.2-1.5-6.9-2-10.5-1.3c-0.9,0.2-1.6,0.4-2.3,0.6c-0.7,0.2-1.5,0.4-2.2,0.7c-1.4,0.5-2.8,1-4.2,1.5c-1.4,0.5-2.8,1.1-4.1,1.7
				c-1.4,0.6-2.7,1.2-4.1,1.9c-1.5,0.7-2.1,2.5-1.4,4c0.5,0.9,1.3,1.5,2.3,1.6l2.1,0.3c0.4,0,0.7,0,1.1,0l1.1,0
				c0.7,0,1.5-0.1,2.2-0.2C153.2,135.3,154.6,135.1,155.9,134.9z"/>
			<path class="st0" d="M92.7,150c-2.9-2.9-6.9-4.6-11-4.6c-4.1,0-8.1,1.7-11,4.6c-2.9,2.9-4.6,6.9-4.6,11c0,0.6,0.4,1.2,1.1,1.3
				c0.7,0.2,1.5-0.3,1.6-1l0.1-0.3c0.7-3.3,2.7-6,5-7.8c2.4-1.7,5.1-2.5,7.8-2.2c0.2,0,0.3,0.1,0.5,0.1c-2.7,2.8-4.5,7.6-4.5,13.1
				c0,8.7,0.3,15.7,10.1,15.7c9.9,0,10.1-7,10.1-15.7c0-4.4-1.2-8.3-3-11.1C94.3,151.9,93.6,150.9,92.7,150z"/>
			<path class="st0" d="M177.7,150c-2.9-2.9-6.9-4.6-11-4.6c-4.1,0-8.1,1.7-11,4.6c-2.9,2.9-4.6,6.9-4.6,11c0,0.6,0.4,1.2,1.1,1.3
				c0.7,0.2,1.5-0.3,1.6-1l0.1-0.3c0.7-3.3,2.7-6,5-7.8c2.4-1.7,5.1-2.5,7.8-2.2c0.2,0,0.3,0.1,0.5,0.1c-2.7,2.8-4.5,7.6-4.5,13.1
				c0,8.7,0.3,15.7,10.1,15.7c9.9,0,10.1-7,10.1-15.7c0-4.4-1.2-8.3-3-11.1C179.3,151.9,178.6,150.9,177.7,150z"/>
		</g>
	</g>
</g>
<g id="Original" class="st3">
</g>
<g id="OLD" class="st3">
</g>
<g id="Patterns">
</g>
</svg>
